<svg width="787" height="523" viewBox="0 0 787 523" fill="none" xmlns="http://www.w3.org/2000/svg">
<g clip-path="url(#clip0_1_147)">
<path d="M561.073 4.14574C488.07 -8.46959 414.043 9.34861 343.609 35.4392C300.396 51.4505 258.762 64.1638 214.418 75.9301C164.61 89.1441 112.124 102.598 69.2496 134.925C18.1025 173.489 0.893861 233.311 0.959169 299.294C1.00271 347.274 9.16627 397.67 36.9439 434.71C79.1438 490.973 152.3 500.486 214.331 495.839C292.157 490.015 342.139 475.169 418.876 499.529C514.008 529.723 633.228 542.425 718.335 452.942C833.789 331.546 792.155 137.331 669.963 49.7198C652.069 36.8868 632.792 26.3613 612.656 18.4917C595.556 11.8085 578.347 7.11724 561.073 4.13484V4.14574Z" fill="#302F4B"/>
<path opacity="0.3" d="M278.154 446.761C357.674 446.761 422.137 439.193 422.137 429.857C422.137 420.521 357.674 412.953 278.154 412.953C198.635 412.953 134.172 420.521 134.172 429.857C134.172 439.193 198.635 446.761 278.154 446.761Z" fill="black"/>
<path d="M523.055 199.176H558.055V170.16H523.055V199.176Z" fill="#5D5D97"/>
<path d="M558.055 199.176H593.055V170.16H558.055V199.176Z" fill="#4D326E"/>
<path d="M593.053 199.176H628.053V170.16H593.053V199.176Z" fill="#4B5864"/>
<path d="M628 199.176H663V170.16H628V199.176Z" fill="#343456"/>
<path d="M523.055 228.191H558.055V199.175H523.055V228.191Z" fill="#343456"/>
<path d="M558.055 228.191H593.055V199.175H558.055V228.191Z" fill="#4B5864"/>
<path d="M593.053 228.191H628.053V199.175H593.053V228.191Z" fill="#4D326E"/>
<path d="M628 228.191H663V199.175H628V228.191Z" fill="#5D5D97"/>
<path d="M523.055 256.939H558.055V227.924H523.055V256.939Z" fill="#4D326E"/>
<path d="M558.055 256.939H593.055V227.924H558.055V256.939Z" fill="#5D5D97"/>
<path d="M593 256.939H628V227.924H593V256.939Z" fill="#343456"/>
<path d="M628 256.939H663V227.924H628V256.939Z" fill="#4B5864"/>
<path d="M523.055 285.954H558.055V256.939H523.055V285.954Z" fill="#4B5864"/>
<path d="M558.055 285.954H593.055V256.939H558.055V285.954Z" fill="#343456"/>
<path d="M593.053 285.954H628.053V256.939H593.053V285.954Z" fill="#4D326E"/>
<path d="M628 285.954H663V256.939H628V285.954Z" fill="#343456"/>
<path d="M523.055 314.862H558.055V285.847H523.055V314.862Z" fill="#343456"/>
<path d="M558.055 314.862H593.055V285.847H558.055V314.862Z" fill="#5D5D97"/>
<path d="M593 314.862H628V285.847H593V314.862Z" fill="#4B5864"/>
<path d="M628 314.862H663V285.847H628V314.862Z" fill="#5D5D97"/>
<path d="M663.002 199.122H698.002V170.107H663.002V199.122Z" fill="#4B5864"/>
<path d="M698 199.389H733V170.374H698V199.389Z" fill="#5D5D97"/>
<path d="M663.002 228.137H698.002V199.122H663.002V228.137Z" fill="#4D326E"/>
<path d="M698 228.137H733V199.122H698V228.137Z" fill="#343456"/>
<path d="M663.002 256.885H698.002V227.87H663.002V256.885Z" fill="#343456"/>
<path d="M698 256.885H733V227.87H698V256.885Z" fill="#5D5D97"/>
<path d="M663.002 285.901H698.002V256.886H663.002V285.901Z" fill="#5D5D97"/>
<path d="M698 285.901H733V256.886H698V285.901Z" fill="#343456"/>
<path d="M663.002 314.809H698.002V285.794H663.002V314.809Z" fill="#4D326E"/>
<path d="M697.947 314.809H732.947V285.794H697.947V314.809Z" fill="#4B5864"/>
<path d="M528.718 170H727.229C730.382 170 732.947 172.565 732.947 175.718V309.092C732.947 312.244 730.382 314.809 727.229 314.809H528.718C525.565 314.809 523 312.244 523 309.092V175.718C523 172.565 525.565 170 528.718 170Z" stroke="#8684D6" stroke-width="3.58015" stroke-linecap="round" stroke-linejoin="round"/>
<path d="M396.575 276.893C408.634 271.732 506.119 231.041 508.581 261.644C510.882 290.339 431.945 317.48 401.907 319.53" fill="#F99F10"/>
<path d="M396.575 276.893C408.634 271.732 506.119 231.041 508.581 261.644C510.882 290.339 431.945 317.48 401.907 319.53" stroke="#3A1103" stroke-width="6.48635" stroke-miterlimit="10" stroke-linecap="round"/>
<path d="M226.744 114.067C190.939 89.1033 145.125 83.502 137.067 92.4618C130.53 99.7198 155.223 139.481 151.222 151.101C147.233 162.72 112.205 155.203 108.373 169.978C106.559 177 133.427 193.939 132.705 203.744C131.984 213.549 111.236 210.776 109.714 223.467C108.689 231.998 127.623 233.88 126.901 244.046C126.18 254.212 112.509 252.352 113.107 262.202C113.591 270.193 128.536 264.93 132.536 278.364C136.526 291.798 226.755 114.067 226.755 114.067H226.744Z" fill="#EF6122"/>
<path d="M67.0233 352.488C68.1165 319.624 91.0514 312.332 107.709 317.945C124.355 323.557 123.431 342.908 119.227 350.189C112.51 361.809 102.648 356.793 106.334 348.656C109.061 340.846 109.568 330.004 96.664 333.453C80.6265 337.747 85.6192 380.866 119.385 372.391C142.511 366.587 140.697 342.097 138.86 306.382C133.935 271.827 139.265 226.521 153.962 183.514C183.738 96.3726 363.103 68.0506 422.643 148.655C499.991 253.355 414.698 355.621 401.579 368.683C360.714 400.398 367.341 429.092 338.061 430.996C310.234 432.811 312.522 404.534 294.118 402.956C293.036 402.956 291.954 402.956 290.872 402.934C269.267 404.523 265.097 431.47 232.515 430.996C205.962 430.613 217.785 407.419 200.046 396.295C196.326 394.537 193.103 393.298 190.128 392.486C187.784 391.99 185.18 391.629 182.239 391.449C181.562 391.404 177.471 391.427 176.277 391.427C165.739 391.618 159.416 394.109 135.603 398.955C92.6969 407.678 66.0992 380.292 67.0233 352.488Z" fill="#FAC20C" stroke="#3A1103" stroke-width="6.48635" stroke-miterlimit="10"/>
<path d="M184.142 136.314C245.137 93.1043 316.128 116.704 325.2 122.7C334.273 128.696 347.132 121.573 339.908 103.574C315.699 43.3013 253.24 12.6463 236.425 23.0261C217.626 34.6345 241.271 86.4098 228.986 98.5478C219.125 108.285 212.408 100.847 195.638 95.2231C180.491 90.1402 184.142 136.314 184.142 136.314Z" fill="#EF6122"/>
<path d="M289.308 68.814C289.267 67.9495 289.125 67.0326 288.874 65.9527C288.622 64.8729 288.213 63.7316 287.642 62.4844C287.067 61.2906 286.284 59.9844 285.28 58.7794C284.912 58.2865 284.49 57.7961 284.012 57.3563C284.76 54.5665 283.238 52.117 283.238 52.117C280.55 51.9083 278.863 52.85 278.209 53.3225C278.103 53.2689 277.994 53.2089 277.886 53.2086C277.458 53.041 276.974 52.8161 276.495 52.7005C276.014 52.5303 275.53 52.4134 275.048 52.2432C274.564 52.1263 274.031 52.0132 273.493 51.8936C273.385 51.8934 273.332 51.8907 273.226 51.837C272.105 48.0994 268.794 46.4845 268.794 46.4845C265.038 48.7903 264.226 52.1151 264.226 52.1151C264.226 52.1151 264.223 52.1684 264.172 52.3285C263.954 52.3763 263.74 52.4304 263.523 52.4782C263.253 52.583 262.925 52.6839 262.658 52.7354C262.388 52.8403 262.06 52.9412 261.79 53.046C261.249 53.304 260.649 53.5632 260.106 53.8263C259.562 54.1427 259.018 54.4541 258.528 54.7682C258.477 54.7121 258.422 54.7145 258.422 54.7145C253.285 52.6871 248.665 55.0339 248.665 55.0339C248.139 60.518 250.557 64.0642 251.085 64.7164C250.971 65.039 250.855 65.4099 250.747 65.7338C250.348 66.9685 250.057 68.2517 249.819 69.5973C249.814 69.8122 249.757 69.9709 249.757 70.187C244.871 72.3641 243.387 77.1899 243.387 77.1899C247.295 81.8368 251.972 82.2398 251.972 82.2398C252.547 83.3256 253.228 84.3086 253.97 85.2905C254.284 85.6726 254.603 86.0561 254.971 86.4409C253.448 90.5648 255.055 94.09 255.055 94.09C259.521 94.3259 262.466 92.275 263.067 91.7998C263.495 91.9673 263.979 92.0842 264.41 92.1984C265.753 92.597 267.149 92.7822 268.549 92.914C268.871 92.9199 269.249 92.9234 269.572 92.9292L269.733 92.9322L269.841 92.9324L270.056 92.938L270.271 92.9437C272.322 95.997 275.974 96.4331 275.974 96.4331C278.662 93.7332 278.815 90.9878 278.824 90.3954L278.826 90.342L278.827 90.234V90.1259C279.374 89.756 279.918 89.3366 280.409 88.9145C281.45 87.9611 282.436 86.902 283.21 85.7839C283.264 85.6786 283.377 85.5721 283.431 85.4667C286.389 85.6786 288.527 83.721 288.527 83.721C288.093 80.6436 286.341 79.1037 285.97 78.7774L285.919 78.7213L285.865 78.7186C285.865 78.7186 285.812 78.7159 285.815 78.6626C285.818 78.5011 285.877 78.289 285.88 78.1275C285.885 77.8047 285.945 77.4845 285.948 77.1069L285.951 76.8374L285.952 76.7294L285.954 76.676L285.955 76.5679L285.96 76.3531L285.963 76.0836L285.967 75.8141L285.97 75.5446L285.973 75.2751L285.923 75.003C285.875 74.6774 285.824 74.3023 285.723 73.9741C285.421 72.622 284.958 71.3751 284.279 70.2306C283.601 69.0861 282.754 68.0506 281.798 67.1711C280.841 66.2916 279.776 65.628 278.658 65.0697C277.537 64.5648 276.355 64.1692 275.172 64.0379C274.582 63.9754 273.988 63.9117 273.397 63.8975L273.182 63.8919L273.128 63.8892C273.128 63.8892 273.02 63.889 273.075 63.8866L272.967 63.8863L272.752 63.8807L272.537 63.8751C272.212 63.9226 271.942 63.9194 271.622 63.9682C270.431 64.1649 269.349 64.5779 268.318 65.15C267.34 65.7247 266.464 66.4116 265.751 67.2641C265.036 68.062 264.483 68.9657 264.088 69.9309C263.693 70.8961 263.46 71.8591 263.394 72.8263L263.385 73.5267L263.382 73.6882L263.377 73.903L263.371 74.2259C263.415 74.7129 263.514 75.1974 263.616 75.6286C263.871 76.5471 264.233 77.3628 264.758 78.02C265.233 78.7293 265.868 79.2787 266.505 79.7748C267.144 80.2175 267.839 80.5497 268.532 80.7789C269.226 81.0081 269.875 81.0695 270.521 81.0812L270.736 81.0868L270.844 81.0871L270.952 81.0874L271.167 81.093L271.22 81.0956L271.274 81.0983L271.382 81.0986C271.49 81.0989 271.543 81.1015 271.599 81.0508C271.653 81.0535 271.763 81.0004 271.817 81.003C271.981 80.9526 272.089 80.9528 272.248 80.9011C272.518 80.7963 272.791 80.6978 273.061 80.5929C273.331 80.4881 273.548 80.3322 273.767 80.1713C273.824 80.1206 273.876 80.0635 273.929 80.0662C274.147 79.9104 274.207 79.5851 273.992 79.3685C273.836 79.1507 273.564 79.0928 273.346 79.2487C273.29 79.2994 273.236 79.3018 273.185 79.3538C273.023 79.4589 272.806 79.5067 272.587 79.5595C272.369 79.6073 272.156 79.6615 271.938 79.7092C271.83 79.709 271.721 79.757 271.613 79.7567L271.451 79.7538L271.29 79.7509L271.128 79.7479L270.913 79.7423L270.86 79.7397L270.752 79.7394L270.59 79.7365C270.109 79.6743 269.573 79.5064 269.089 79.2815C268.61 79.0579 268.127 78.7249 267.704 78.3425C267.282 77.9601 266.909 77.466 266.649 76.9784C266.391 76.4375 266.182 75.893 266.086 75.2469C266.039 74.9214 266.042 74.6519 266.048 74.329L266.051 74.0595L266.053 74.0061L266.056 73.9528V73.8447C266.059 73.6833 266.116 73.5245 266.119 73.3631C266.358 72.0721 267.076 70.7937 268.117 69.8403C268.389 69.574 268.665 69.3624 268.936 69.2092C269.211 68.9976 269.537 68.8421 269.862 68.6865C270.188 68.5309 270.511 68.4287 270.894 68.3254C271.217 68.2233 271.598 68.1733 271.974 68.1819L272.511 68.1934L272.62 68.1936L272.781 68.1966L272.889 68.1968L272.942 68.1995L273.104 68.2024C273.477 68.2644 273.911 68.3252 274.286 68.382C275.037 68.5555 275.787 68.837 276.48 69.2823C277.868 70.0599 279.03 71.3212 279.763 72.7875C280.127 73.5498 280.385 74.3068 280.478 75.1143C280.526 75.3318 280.525 75.5479 280.522 75.7093L280.519 75.8707L280.516 76.0322L280.513 76.1936L280.51 76.3551V76.4631L280.507 76.6246L280.499 77.0008C280.493 77.2156 280.439 77.4291 280.434 77.6439C280.428 77.8587 280.374 78.0721 280.314 78.2894C280.253 78.5066 280.2 78.72 280.141 78.9322C280.026 79.3629 279.859 79.7908 279.686 80.2176C279.349 81.0189 278.903 81.8199 278.352 82.5673C277.249 84.0024 275.831 85.1634 274.145 85.8889C273.329 86.2505 272.464 86.5077 271.546 86.6542C271.112 86.7015 270.631 86.7473 270.197 86.7946L270.089 86.7943L270.036 86.7916L269.874 86.7887L269.659 86.7831L269.551 86.7828L269.498 86.7802C269.283 86.7746 269.014 86.7713 268.8 86.7174C267.834 86.6464 266.866 86.4127 265.954 86.1283C265.042 85.8438 264.135 85.4526 263.334 85.007C261.68 84.0648 260.14 82.8 258.98 81.2692C258.4 80.5063 257.877 79.6876 257.461 78.8743C257.042 78.0063 256.737 77.1399 256.483 76.2163C256.229 75.2979 256.137 74.3773 256.044 73.4618L256.047 73.3003L256.05 73.247L256.052 73.1936L256.055 73.1402L256.058 72.9788L256.061 72.9254L256.063 72.872V72.7639L256.069 72.5491L256.072 72.4957V72.3877L256.078 72.0648C256.087 71.5805 256.146 71.1522 256.21 70.6655C256.272 70.1839 256.389 69.6998 256.45 69.2665C256.566 68.7824 256.679 68.3568 256.801 67.8741C257.086 66.962 257.424 66.0527 257.814 65.254C258.595 63.597 259.648 62.1059 260.904 60.9419C261.233 60.6249 261.559 60.3613 261.89 60.099C262.221 59.8367 262.544 59.6264 262.925 59.3604C263.254 59.1514 263.632 58.9388 264.014 58.7325C264.175 58.6274 264.393 58.5796 264.555 58.4745C264.665 58.4214 264.77 58.3721 264.824 58.3697C264.935 58.3165 265.039 58.2672 265.094 58.2648C265.473 58.1119 265.907 57.9566 266.285 57.852C266.396 57.7989 266.502 57.8043 266.608 57.7499C266.719 57.6967 266.825 57.7021 266.931 57.6477C267.149 57.5999 267.362 57.5458 267.526 57.4953C267.637 57.4422 267.744 57.4475 267.852 57.4478C267.96 57.4481 268.07 57.4 268.178 57.4003C268.286 57.4005 268.395 57.3525 268.503 57.3528L268.667 57.3023L268.829 57.3053C268.937 57.3055 269.046 57.2575 269.154 57.2577C269.262 57.258 269.372 57.21 269.533 57.2129C269.641 57.2132 269.805 57.1627 269.912 57.1681L270.127 57.1737L270.288 57.1766L270.342 57.1793L270.45 57.1795L270.826 57.1881L270.987 57.191L271.041 57.1937L271.094 57.1964L271.417 57.2023L272.602 57.2204C273.406 57.2885 274.163 57.3552 274.913 57.5286C276.418 57.8221 277.862 58.3329 279.142 59.0021C280.422 59.6713 281.594 60.4433 282.551 61.3228C282.601 61.3788 282.658 61.4311 282.709 61.4871C282.76 61.5432 282.817 61.5955 282.868 61.6515C282.975 61.7598 283.077 61.8719 283.238 61.9829C283.346 62.0913 283.447 62.2034 283.555 62.3117C283.663 62.42 283.764 62.5321 283.872 62.6404C284.297 63.0775 284.664 63.5704 285.033 64.0581C285.717 64.9878 286.295 65.9121 286.711 66.8335C286.761 66.8895 286.764 66.9442 286.816 66.9952C286.868 67.0462 286.869 67.1059 286.866 67.1593C286.919 67.27 286.969 67.3744 287.022 67.4851C287.075 67.5958 287.124 67.7002 287.177 67.8109C287.23 67.9217 287.28 68.026 287.333 68.1367C287.488 68.5706 287.641 68.9498 287.746 69.3276C287.951 69.9256 288.101 70.4662 288.201 70.9508C288.251 71.1149 288.41 71.2793 288.628 71.2264C288.843 71.232 289.007 71.0735 289.013 70.8587C289.351 70.0574 289.365 69.4663 289.318 68.8166L289.308 68.814Z" fill="#FAC20C" fill-opacity="0.5"/>
<path d="M275.487 254.358H442.601C462.681 254.358 478.959 238.08 478.959 218.001V217.989C478.959 197.91 462.681 181.632 442.601 181.632H275.487C255.407 181.632 239.129 197.91 239.129 217.989V218.001C239.129 238.08 255.407 254.358 275.487 254.358Z" fill="#5545EF" stroke="#231735" stroke-width="6.48635" stroke-miterlimit="10"/>
<path d="M313.999 242.13H440.811C454.132 242.13 464.93 231.332 464.93 218.012C464.93 204.692 454.132 193.894 440.811 193.894H313.999C300.679 193.894 289.881 204.692 289.881 218.012C289.881 231.332 300.679 242.13 313.999 242.13Z" fill="#19052D"/>
<path d="M270.823 319.489C270.124 340.722 262.539 360.456 246.795 359.115C229.405 357.638 225.088 339.595 225.686 319.996" fill="#F99F10"/>
<path d="M270.823 319.489C270.124 340.722 262.539 360.456 246.795 359.115C229.405 357.638 225.088 339.595 225.686 319.996" stroke="#3A1103" stroke-width="6.48635" stroke-miterlimit="10" stroke-linecap="round"/>
<path d="M205.75 101.985C175.004 87.5143 145.014 79.8392 137.069 92.4619C128.481 106.11 157.761 135.097 151.224 151.101C145.116 166.068 110.618 153.22 108.375 169.978C106.583 183.39 133.429 193.939 132.707 203.744C131.986 213.549 110.978 209.548 109.446 222.25C108.42 230.781 127.624 233.88 126.892 244.046C126.171 254.212 113.097 252.341 113.097 262.202C113.097 270.227 136.528 270.914 137.193 287.606" stroke="#3A1103" stroke-width="6.48635" stroke-miterlimit="10"/>
<path d="M325.2 122.7C334.273 128.696 347.132 121.573 339.908 103.574C315.699 43.3012 255.088 12.5335 236.425 23.0261C216.837 34.037 241.271 86.4097 228.987 98.5477C222.123 105.332 213.107 105.039 204.846 101.568" stroke="#3A1103" stroke-width="6.48635" stroke-miterlimit="10"/>
<path d="M325.55 122.97C292.923 103.63 235.231 102.605 184.053 140.878" stroke="#3A1103" stroke-width="6.48635" stroke-miterlimit="10"/>
<path d="M364.862 270.294C376.132 270.711 393.138 276.504 392.609 288.135C392.079 299.777 373.765 303.575 358.449 299.18C343.133 294.785 344.305 283.638 346.716 279.863C349.128 276.087 354.403 269.911 364.873 270.294H364.862Z" fill="black"/>
<path d="M369.098 275.693C376.356 276.628 381.755 280.403 381.755 280.403C381.755 280.403 380.695 288.281 368.039 288.033C355.382 287.785 358.854 275.997 358.854 275.997C358.854 275.997 362.19 274.802 369.087 275.681L369.098 275.693Z" fill="white"/>
<path d="M706.182 329V345.376" stroke="#6860B9" stroke-width="6.48635" stroke-miterlimit="10" stroke-linecap="round"/>
<path d="M714.376 337.193H698" stroke="#6860B9" stroke-width="6.48635" stroke-miterlimit="10" stroke-linecap="round"/>
<path d="M720.977 138V151.964" stroke="#4F44B7" stroke-width="6.48635" stroke-miterlimit="10" stroke-linecap="round"/>
<path d="M727.953 144.976H714" stroke="#4F44B7" stroke-width="6.48635" stroke-miterlimit="10" stroke-linecap="round"/>
<path d="M534 349L540.706 355.706" stroke="#4F44B7" stroke-width="6.48635" stroke-miterlimit="10" stroke-linecap="round"/>
<path d="M540.706 349L534 355.706" stroke="#4F44B7" stroke-width="6.48635" stroke-miterlimit="10" stroke-linecap="round"/>
<path d="M563 138.734H572.467" stroke="#6860B9" stroke-width="6.48635" stroke-miterlimit="10" stroke-linecap="round"/>
<path d="M567.732 134V143.478" stroke="#6860B9" stroke-width="6.48635" stroke-miterlimit="10" stroke-linecap="round"/>
<path d="M755.113 273.712V288.295C755.125 290.031 756.533 291.428 758.258 291.428C759.982 291.428 761.391 290.031 761.391 288.295V273.712C761.38 271.976 759.971 270.579 758.246 270.579C756.522 270.579 755.113 271.976 755.113 273.712Z" fill="#4337B6"/>
<path d="M390.578 230.781L424.434 207.699" stroke="white" stroke-width="6.71986" stroke-miterlimit="10" stroke-linecap="round"/>
<path d="M424.434 230.781L390.578 207.699" stroke="white" stroke-width="6.71986" stroke-miterlimit="10" stroke-linecap="round"/>
<path d="M340.676 230.781L374.531 207.699" stroke="white" stroke-width="6.71986" stroke-miterlimit="10" stroke-linecap="round"/>
<path d="M374.531 230.781L340.676 207.699" stroke="white" stroke-width="6.71986" stroke-miterlimit="10" stroke-linecap="round"/>
<path d="M621.886 332.618L584.311 332.64C582.575 332.64 581.178 334.038 581.178 335.773C581.178 337.509 582.575 338.906 584.311 338.906L621.886 338.884C623.621 338.884 625.019 337.486 625.019 335.751C625.019 334.015 623.621 332.618 621.886 332.618Z" fill="#4C42B1"/>
<path d="M633.708 152L596.133 152.022C594.397 152.022 593 153.42 593 155.155C593 156.891 594.397 158.288 596.133 158.288L633.708 158.266C635.443 158.266 636.841 156.868 636.841 155.133C636.841 153.397 635.443 152 633.708 152Z" fill="#4C42B1"/>
<path d="M537.246 137H522.392C520.521 137 519 138.533 519 140.404V155.258C519 157.14 520.533 158.65 522.404 158.65H537.258C539.129 158.65 540.65 157.129 540.65 155.246V140.392C540.65 138.521 539.117 137 537.246 137ZM535.578 153.578H524.072V142.083H535.578V153.578Z" fill="#8079BC"/>
<path d="M565.748 329C569.558 329 572.657 332.099 572.657 335.909C572.657 339.718 569.558 342.817 565.748 342.817C561.939 342.817 558.84 339.718 558.84 335.909C558.84 332.099 561.939 329 565.748 329ZM565.748 338.208C567.022 338.208 568.048 337.171 568.048 335.909C568.048 334.646 567.011 333.61 565.748 333.61C564.486 333.61 563.449 334.646 563.449 335.909C563.449 337.171 564.486 338.208 565.748 338.208Z" fill="#4F44B7"/>
<path d="M764.772 255.634C764.772 259.432 761.684 262.52 757.886 262.52C754.088 262.52 751 259.432 751 255.634C751 251.836 754.088 248.748 757.886 248.748C761.684 248.748 764.772 251.836 764.772 255.634ZM755.598 255.634C755.598 256.896 756.624 257.933 757.897 257.933C759.171 257.933 760.196 256.908 760.196 255.634C760.196 254.361 759.171 253.335 757.897 253.335C756.624 253.335 755.598 254.361 755.598 255.634Z" fill="#4337B6"/>
<path d="M667.914 358.746C666.629 358.746 665.355 358.261 664.476 357.269C663.496 356.39 663 355.117 663 353.832C663 352.547 663.485 351.285 664.476 350.395C666.246 348.535 669.582 348.535 671.34 350.395C671.836 350.789 672.23 351.386 672.422 351.973C672.715 352.57 672.816 353.246 672.816 353.843C672.816 354.52 672.715 355.117 672.422 355.703C672.23 356.3 671.836 356.886 671.34 357.281C670.461 358.273 669.187 358.757 667.903 358.757L667.914 358.746Z" fill="#8079BC"/>
<path d="M757.359 228.68C756.479 228.68 755.612 228.342 755.003 227.666C754.327 227.057 754 226.19 754 225.311C754 224.432 754.338 223.564 755.003 222.955C756.209 221.682 758.497 221.682 759.703 222.955C760.041 223.226 760.311 223.631 760.447 224.037C760.649 224.443 760.717 224.905 760.717 225.322C760.717 225.784 760.649 226.19 760.447 226.595C760.311 227.001 760.041 227.407 759.703 227.677C759.094 228.354 758.226 228.692 757.347 228.692L757.359 228.68Z" fill="#8079BC"/>
<path d="M704.945 133.83C704.471 133.83 703.919 133.751 703.446 133.514C702.972 133.357 702.499 133.041 702.183 132.647C701.394 131.937 701 130.911 701 129.885C701 129.333 701.079 128.86 701.316 128.386C701.473 127.913 701.789 127.44 702.183 127.124C703.603 125.625 706.286 125.625 707.706 127.124C708.1 127.44 708.416 127.913 708.574 128.386C708.81 128.86 708.889 129.333 708.889 129.885C708.889 130.911 708.495 131.937 707.706 132.647C707.39 133.041 706.917 133.357 706.443 133.514C705.97 133.751 705.418 133.83 704.945 133.83Z" fill="#4F44B7"/>
</g>
<defs>
<clipPath id="clip0_1_147">
<rect width="787" height="523" fill="white"/>
</clipPath>
</defs>
</svg>
