<svg width="1549" height="1030" viewBox="0 0 1549 1030" fill="none" xmlns="http://www.w3.org/2000/svg">
<g clip-path="url(#clip0_1_2)">
<path opacity="0.1" d="M1104.31 8.17366C960.378 -16.6985 814.429 18.4315 675.561 69.8711C590.365 101.439 508.28 126.504 420.852 149.702C322.651 175.755 219.171 202.279 134.64 266.016C33.7998 342.048 -0.128395 459.992 0.000364882 590.083C0.0862048 684.678 16.1813 784.038 70.9472 857.067C154.148 967.993 298.38 986.749 420.681 977.586C574.12 966.105 672.664 936.833 823.957 984.861C1011.52 1044.39 1246.57 1069.43 1414.36 893.012C1641.99 653.669 1559.91 270.758 1319 98.0266C1283.72 72.7253 1245.71 51.9735 1206.01 36.4579C1172.3 23.2815 1138.37 14.0322 1104.31 8.15218V8.17366Z" fill="#F84E1B"/>
<path d="M1247.26 288L1173.18 288.045C1169.75 288.045 1167 290.8 1167 294.222C1167 297.644 1169.75 300.399 1173.18 300.399L1247.26 300.355C1250.68 300.355 1253.44 297.599 1253.44 294.177C1253.44 290.756 1250.68 288 1247.26 288Z" fill="#F7E494"/>
<path opacity="0.3" d="M546.513 880.825C703.292 880.825 830.386 865.904 830.386 847.498C830.386 829.092 703.292 814.17 546.513 814.17C389.735 814.17 262.641 829.092 262.641 847.498C262.641 865.904 389.735 880.825 546.513 880.825Z" fill="#FF671D"/>
<path d="M1029.36 392.692H1098.36V335.486H1029.36V392.692Z" fill="#CACAF9"/>
<path d="M1098.36 392.692H1167.36V335.486H1098.36V392.692Z" fill="#B48EEB"/>
<path d="M1167.36 392.692H1236.36V335.486H1167.36V392.692Z" fill="#BAC4D1"/>
<path d="M1236.26 392.692H1305.27V335.486H1236.26V392.692Z" fill="#8D8ECA"/>
<path d="M1029.36 449.896H1098.36V392.69H1029.36V449.896Z" fill="#8D8ECA"/>
<path d="M1098.36 449.896H1167.36V392.69H1098.36V449.896Z" fill="#BAC4D1"/>
<path d="M1167.36 449.896H1236.36V392.69H1167.36V449.896Z" fill="#B48EEB"/>
<path d="M1236.26 449.896H1305.27V392.69H1236.26V449.896Z" fill="#CACAF9"/>
<path d="M1029.36 506.576H1098.36V449.37H1029.36V506.576Z" fill="#B48EEB"/>
<path d="M1098.36 506.576H1167.36V449.37H1098.36V506.576Z" fill="#CACAF9"/>
<path d="M1167.26 506.576H1236.26V449.37H1167.26V506.576Z" fill="#8D8ECA"/>
<path d="M1236.26 506.576H1305.27V449.37H1236.26V506.576Z" fill="#BAC4D1"/>
<path d="M1029.36 563.782H1098.36V506.576H1029.36V563.782Z" fill="#BAC4D1"/>
<path d="M1098.36 563.782H1167.36V506.576H1098.36V563.782Z" fill="#8D8ECA"/>
<path d="M1167.36 563.782H1236.36V506.576H1167.36V563.782Z" fill="#B48EEB"/>
<path d="M1236.26 563.782H1305.27V506.576H1236.26V563.782Z" fill="#8D8ECA"/>
<path d="M1029.36 620.776H1098.36V563.57H1029.36V620.776Z" fill="#8D8ECA"/>
<path d="M1098.36 620.776H1167.36V563.57H1098.36V620.776Z" fill="#CACAF9"/>
<path d="M1167.26 620.776H1236.26V563.57H1167.26V620.776Z" fill="#BAC4D1"/>
<path d="M1236.26 620.776H1305.27V563.57H1236.26V620.776Z" fill="#CACAF9"/>
<path d="M1305.27 392.586H1374.27V335.38H1305.27V392.586Z" fill="#BAC4D1"/>
<path d="M1374.27 393.111H1443.28V335.905H1374.27V393.111Z" fill="#CACAF9"/>
<path d="M1305.27 449.791H1374.27V392.585H1305.27V449.791Z" fill="#B48EEB"/>
<path d="M1374.27 449.791H1443.28V392.585H1374.27V449.791Z" fill="#8D8ECA"/>
<path d="M1305.27 506.47H1374.27V449.264H1305.27V506.47Z" fill="#8D8ECA"/>
<path d="M1374.27 506.47H1443.28V449.264H1374.27V506.47Z" fill="#CACAF9"/>
<path d="M1305.27 563.677H1374.27V506.471H1305.27V563.677Z" fill="#CACAF9"/>
<path d="M1374.27 563.677H1443.28V506.471H1374.27V563.677Z" fill="#8D8ECA"/>
<path d="M1305.27 620.672H1374.27V563.466H1305.27V620.672Z" fill="#B48EEB"/>
<path d="M1374.17 620.672H1443.17V563.466H1374.17V620.672Z" fill="#BAC4D1"/>
<path d="M1040.52 335.169H1431.9C1438.12 335.169 1443.17 340.226 1443.17 346.442V609.399C1443.17 615.615 1438.12 620.672 1431.9 620.672H1040.52C1034.3 620.672 1029.25 615.615 1029.25 609.399V346.442C1029.25 340.226 1034.3 335.169 1040.52 335.169Z" stroke="#CACAF9" stroke-width="7.05856" stroke-linecap="round" stroke-linejoin="round"/>
<path d="M779.99 545.916C803.766 535.742 995.966 455.515 1000.82 515.853C1005.36 572.426 849.724 625.936 790.502 629.979" fill="#F99F10"/>
<path d="M779.99 545.916C803.766 535.742 995.966 455.515 1000.82 515.853C1005.36 572.426 849.724 625.936 790.502 629.979" stroke="#3A1103" stroke-width="12.7884" stroke-miterlimit="10" stroke-linecap="round"/>
<path d="M445.153 224.892C374.56 175.674 284.235 164.631 268.347 182.296C255.46 196.605 304.144 274.998 296.256 297.907C288.39 320.816 219.33 305.995 211.775 335.126C208.198 348.969 261.17 382.366 259.748 401.697C258.326 421.029 217.419 415.562 214.419 440.582C212.397 457.403 249.727 461.114 248.305 481.156C246.883 501.199 219.93 497.532 221.107 516.953C222.063 532.707 251.527 522.33 259.415 548.816C267.281 575.303 445.175 224.892 445.175 224.892H445.153Z" fill="#EF6122"/>
<path d="M130.253 694.959C132.408 630.165 177.626 615.789 210.468 626.854C243.287 637.92 241.465 676.072 233.177 690.426C219.933 713.335 200.491 703.447 207.757 687.404C213.134 672.006 214.134 650.63 188.692 657.429C157.073 665.895 166.916 750.909 233.488 734.2C279.083 722.756 275.506 674.472 271.884 604.056C262.174 535.93 272.684 446.605 301.659 361.813C360.365 190.007 713.998 134.168 831.387 293.086C983.883 499.511 815.721 701.136 789.857 726.889C709.287 789.417 722.353 845.989 664.625 849.744C609.763 853.322 614.274 797.571 577.988 794.461C575.855 794.461 573.722 794.461 571.589 794.416C528.993 797.549 520.772 850.678 456.533 849.744C404.183 848.989 427.492 803.26 392.517 781.329C385.184 777.862 378.829 775.418 372.963 773.818C368.342 772.841 363.209 772.129 357.409 771.774C356.076 771.685 348.01 771.73 345.655 771.73C324.879 772.107 312.414 777.018 265.462 786.573C180.87 803.771 128.431 749.776 130.253 694.959Z" fill="#FAC20C" stroke="#3A1103" stroke-width="12.7884" stroke-miterlimit="10"/>
<path d="M361.16 268.755C481.416 183.563 621.38 230.092 639.267 241.913C657.155 253.734 682.508 239.691 668.265 204.205C620.536 85.372 497.392 24.9333 464.239 45.398C427.176 68.2847 473.794 170.364 449.574 194.295C430.132 213.493 416.888 198.828 383.825 187.74C353.961 177.719 361.16 268.755 361.16 268.755Z" fill="#EF6122"/>
<path d="M568.502 135.673C568.421 133.968 568.142 132.16 567.646 130.031C567.15 127.902 566.343 125.652 565.217 123.193C564.084 120.839 562.539 118.264 560.56 115.888C559.836 114.917 559.003 113.95 558.061 113.083C559.535 107.582 556.534 102.753 556.534 102.753C551.235 102.341 547.909 104.198 546.619 105.13C546.411 105.024 546.196 104.906 545.983 104.905C545.139 104.575 544.185 104.131 543.241 103.903C542.292 103.568 541.337 103.337 540.388 103.002C539.434 102.771 538.382 102.548 537.322 102.313C537.109 102.312 537.004 102.307 536.796 102.201C534.586 94.832 528.057 91.6481 528.057 91.6481C520.653 96.194 519.05 102.749 519.05 102.749C519.05 102.749 519.045 102.854 518.944 103.17C518.515 103.264 518.094 103.371 517.665 103.465C517.133 103.672 516.486 103.871 515.959 103.972C515.427 104.179 514.78 104.378 514.249 104.585C513.182 105.093 511.998 105.604 510.929 106.123C509.855 106.747 508.783 107.361 507.817 107.98C507.717 107.869 507.609 107.874 507.609 107.874C497.48 103.877 488.371 108.504 488.371 108.504C487.335 119.316 492.102 126.308 493.142 127.594C492.917 128.23 492.69 128.961 492.475 129.6C491.69 132.034 491.115 134.564 490.647 137.217C490.636 137.64 490.525 137.953 490.524 138.379C480.892 142.672 477.966 152.186 477.966 152.186C485.671 161.348 494.892 162.142 494.892 162.142C496.025 164.283 497.368 166.221 498.83 168.157C499.45 168.911 500.079 169.667 500.804 170.425C497.802 178.556 500.97 185.506 500.97 185.506C509.774 185.971 515.581 181.928 516.766 180.991C517.61 181.321 518.564 181.552 519.414 181.777C522.061 182.563 524.814 182.928 527.573 183.188C528.21 183.199 528.954 183.206 529.591 183.218L529.909 183.223L530.122 183.224L530.545 183.235L530.969 183.246C535.012 189.266 542.213 190.126 542.213 190.126C547.512 184.803 547.813 179.39 547.831 178.222L547.837 178.117V177.904L547.838 177.691C548.917 176.961 549.989 176.134 550.956 175.302C553.008 173.422 554.953 171.334 556.48 169.13C556.586 168.922 556.81 168.712 556.915 168.505C562.746 168.922 566.961 165.063 566.961 165.063C566.107 158.995 562.653 155.959 561.92 155.316L561.82 155.205L561.715 155.2C561.715 155.2 561.61 155.195 561.615 155.09C561.621 154.771 561.737 154.353 561.743 154.035C561.754 153.398 561.871 152.767 561.878 152.023L561.884 151.491L561.885 151.278L561.89 151.173L561.891 150.96L561.902 150.536L561.908 150.005L561.914 149.474L561.921 148.942L561.927 148.411L561.828 147.875C561.734 147.233 561.633 146.493 561.434 145.846C560.839 143.18 559.926 140.722 558.588 138.465C557.25 136.209 555.581 134.167 553.695 132.433C551.81 130.699 549.71 129.391 547.505 128.29C545.294 127.295 542.965 126.515 540.632 126.256C539.47 126.133 538.297 126.007 537.131 125.979L536.708 125.968L536.603 125.963C536.603 125.963 536.39 125.962 536.497 125.958L536.284 125.957L535.861 125.946L535.437 125.935C534.796 126.029 534.264 126.022 533.632 126.119C531.285 126.506 529.151 127.321 527.118 128.449C525.19 129.582 523.463 130.936 522.057 132.617C520.648 134.19 519.558 135.972 518.779 137.875C518 139.777 517.541 141.676 517.411 143.583L517.393 144.964L517.387 145.282L517.376 145.706L517.365 146.342C517.453 147.303 517.648 148.258 517.849 149.108C518.351 150.919 519.064 152.527 520.101 153.823C521.037 155.221 522.288 156.304 523.544 157.282C524.805 158.155 526.174 158.81 527.541 159.262C528.909 159.714 530.189 159.835 531.462 159.858L531.886 159.869L532.099 159.87H532.312L532.735 159.881L532.841 159.887L532.946 159.892H533.159C533.372 159.893 533.477 159.898 533.588 159.798C533.693 159.804 533.911 159.699 534.017 159.704C534.34 159.605 534.553 159.605 534.867 159.503C535.399 159.296 535.938 159.102 536.47 158.896C537.002 158.689 537.431 158.382 537.863 158.064C537.973 157.964 538.076 157.852 538.182 157.857C538.611 157.55 538.73 156.909 538.305 156.481C537.998 156.052 537.462 155.938 537.033 156.245C536.922 156.345 536.814 156.35 536.714 156.452C536.395 156.66 535.966 156.754 535.535 156.858C535.106 156.952 534.685 157.059 534.256 157.153C534.043 157.153 533.827 157.247 533.614 157.247L533.296 157.241L532.977 157.235L532.659 157.23L532.236 157.218L532.13 157.213H531.917L531.599 157.207C530.649 157.084 529.593 156.753 528.639 156.31C527.695 155.869 526.742 155.213 525.909 154.459C525.076 153.705 524.342 152.73 523.828 151.769C523.319 150.703 522.908 149.629 522.718 148.355C522.625 147.714 522.631 147.182 522.642 146.546L522.649 146.014L522.654 145.909L522.659 145.804L522.66 145.591C522.666 145.273 522.777 144.96 522.782 144.641C523.255 142.096 524.669 139.576 526.722 137.696C527.259 137.171 527.802 136.754 528.336 136.452C528.879 136.034 529.521 135.728 530.164 135.421C530.806 135.114 531.443 134.913 532.198 134.709C532.835 134.508 533.585 134.409 534.326 134.426L535.386 134.449H535.6L535.918 134.455L536.131 134.456L536.236 134.461L536.554 134.467C537.291 134.589 538.145 134.709 538.884 134.821C540.365 135.163 541.845 135.718 543.211 136.596C545.947 138.129 548.239 140.616 549.683 143.506C550.401 145.009 550.909 146.502 551.093 148.094C551.187 148.523 551.186 148.949 551.18 149.267L551.174 149.585L551.169 149.904L551.163 150.222L551.157 150.54V150.753L551.151 151.072L551.134 151.813C551.123 152.237 551.017 152.658 551.006 153.081C550.994 153.505 550.888 153.926 550.769 154.354C550.65 154.782 550.544 155.203 550.428 155.621C550.203 156.47 549.872 157.314 549.532 158.155C548.866 159.735 547.988 161.315 546.901 162.788C544.727 165.618 541.932 167.907 538.607 169.337C536.999 170.05 535.293 170.557 533.483 170.846C532.628 170.939 531.678 171.029 530.823 171.123L530.61 171.122L530.505 171.117L530.187 171.111L529.763 171.1L529.55 171.099L529.445 171.094C529.021 171.083 528.49 171.077 528.069 170.97C526.165 170.83 524.256 170.37 522.458 169.809C520.66 169.248 518.872 168.477 517.293 167.598C514.031 165.741 510.995 163.247 508.709 160.229C507.565 158.725 506.534 157.111 505.713 155.507C504.888 153.796 504.285 152.088 503.786 150.267C503.284 148.456 503.103 146.641 502.919 144.836L502.925 144.518L502.93 144.412L502.936 144.307L502.941 144.202L502.947 143.884L502.952 143.778L502.957 143.673L502.958 143.46L502.969 143.036L502.974 142.931L502.975 142.718L502.986 142.082C503.004 141.127 503.121 140.282 503.246 139.323C503.369 138.373 503.599 137.419 503.719 136.565C503.949 135.61 504.172 134.771 504.412 133.819C504.973 132.021 505.639 130.228 506.41 128.654C507.949 125.387 510.024 122.447 512.501 120.152C513.149 119.527 513.792 119.007 514.445 118.49C515.098 117.973 515.736 117.558 516.486 117.034C517.134 116.622 517.879 116.203 518.632 115.796C518.951 115.589 519.38 115.495 519.699 115.287C519.917 115.183 520.123 115.085 520.231 115.081C520.449 114.976 520.655 114.879 520.762 114.874C521.51 114.572 522.365 114.266 523.11 114.06C523.329 113.955 523.539 113.966 523.747 113.859C523.966 113.754 524.176 113.764 524.384 113.657C524.813 113.563 525.235 113.456 525.558 113.357C525.776 113.252 525.987 113.263 526.2 113.263C526.413 113.264 526.629 113.169 526.842 113.169C527.055 113.17 527.271 113.075 527.484 113.076L527.807 112.976L528.126 112.982C528.339 112.983 528.554 112.888 528.767 112.888C528.98 112.889 529.196 112.794 529.514 112.8C529.728 112.8 530.051 112.701 530.262 112.712L530.685 112.723L531.003 112.728L531.109 112.734H531.322L532.064 112.751L532.382 112.757L532.487 112.762L532.592 112.767L533.229 112.779L535.565 112.815C537.151 112.949 538.642 113.08 540.122 113.422C543.088 114.001 545.935 115.008 548.459 116.327C550.982 117.647 553.294 119.169 555.179 120.903C555.279 121.013 555.392 121.116 555.492 121.227C555.592 121.337 555.704 121.441 555.804 121.551C556.017 121.765 556.217 121.986 556.535 122.204C556.747 122.418 556.947 122.639 557.16 122.853C557.372 123.066 557.572 123.287 557.785 123.501C558.622 124.362 559.347 125.334 560.074 126.296C561.423 128.129 562.561 129.951 563.381 131.768C563.481 131.878 563.486 131.986 563.588 132.087C563.691 132.187 563.693 132.305 563.688 132.41C563.793 132.628 563.89 132.834 563.994 133.052C564.099 133.271 564.196 133.477 564.301 133.695C564.406 133.913 564.503 134.119 564.608 134.337C564.914 135.193 565.216 135.94 565.422 136.685C565.827 137.864 566.123 138.93 566.319 139.885C566.418 140.209 566.731 140.533 567.162 140.429C567.586 140.44 567.91 140.127 567.921 139.704C568.586 138.124 568.614 136.959 568.522 135.678L568.502 135.673Z" fill="#FAC20C" fill-opacity="0.5"/>
<path d="M541.256 501.488H870.736C910.325 501.488 942.418 469.395 942.418 429.806V429.783C942.418 390.195 910.325 358.101 870.736 358.101H541.256C501.667 358.101 469.574 390.195 469.574 429.783V429.806C469.574 469.395 501.667 501.488 541.256 501.488Z" fill="#5545EF" stroke="#231735" stroke-width="12.7884" stroke-miterlimit="10"/>
<path d="M617.186 477.379H867.207C893.468 477.379 914.758 456.09 914.758 429.828C914.758 403.567 893.468 382.277 867.207 382.277H617.186C590.924 382.277 569.635 403.567 569.635 429.828C569.635 456.09 590.924 477.379 617.186 477.379Z" fill="#19052D"/>
<path d="M532.06 629.897C530.683 671.76 515.729 710.668 484.687 708.023C450.401 705.113 441.891 669.538 443.069 630.897" fill="#F99F10"/>
<path d="M532.06 629.897C530.683 671.76 515.729 710.668 484.687 708.023C450.401 705.113 441.891 669.538 443.069 630.897" stroke="#3A1103" stroke-width="12.7884" stroke-miterlimit="10" stroke-linecap="round"/>
<path d="M403.761 201.072C343.144 172.541 284.016 157.409 268.351 182.296C251.419 209.204 309.147 266.355 296.26 297.907C284.216 327.415 216.201 302.084 211.779 335.126C208.246 361.568 261.174 382.366 259.752 401.697C258.33 421.029 216.912 413.141 213.89 438.183C211.868 455.003 249.731 461.114 248.286 481.156C246.864 501.199 221.089 497.51 221.089 516.953C221.089 532.774 267.285 534.129 268.596 567.037" stroke="#3A1103" stroke-width="12.7884" stroke-miterlimit="10"/>
<path d="M639.269 241.913C657.156 253.734 682.509 239.691 668.266 204.205C620.538 85.3719 501.038 24.7109 464.241 45.3979C425.623 67.1069 473.796 170.364 449.576 194.295C436.044 207.671 418.268 207.094 401.98 200.25" stroke="#3A1103" stroke-width="12.7884" stroke-miterlimit="10"/>
<path d="M639.958 242.445C575.631 204.315 461.886 202.293 360.984 277.753" stroke="#3A1103" stroke-width="12.7884" stroke-miterlimit="10"/>
<path d="M717.463 532.907C739.684 533.729 773.214 545.15 772.169 568.082C771.125 591.035 735.017 598.523 704.82 589.857C674.623 581.191 676.934 559.216 681.689 551.772C686.444 544.328 696.843 532.152 717.486 532.907H717.463Z" fill="black"/>
<path d="M725.819 543.55C740.128 545.394 750.772 552.838 750.772 552.838C750.772 552.838 748.683 568.37 723.73 567.881C698.777 567.392 705.62 544.15 705.62 544.15C705.62 544.15 712.198 541.794 725.796 543.528L725.819 543.55Z" fill="white"/>
<path d="M1390.4 648.65V680.936" stroke="#F49314" stroke-width="12.7884" stroke-miterlimit="10" stroke-linecap="round"/>
<path d="M1406.56 664.804H1374.27" stroke="#F49314" stroke-width="12.7884" stroke-miterlimit="10" stroke-linecap="round"/>
<path d="M1419.57 272.078V299.609" stroke="#FAC20C" stroke-width="12.7884" stroke-miterlimit="10" stroke-linecap="round"/>
<path d="M1433.33 285.832H1405.82" stroke="#FAC20C" stroke-width="12.7884" stroke-miterlimit="10" stroke-linecap="round"/>
<path d="M1050.93 688.082L1064.15 701.303" stroke="#FAC20C" stroke-width="12.7884" stroke-miterlimit="10" stroke-linecap="round"/>
<path d="M1064.15 688.082L1050.93 701.303" stroke="#FAC20C" stroke-width="12.7884" stroke-miterlimit="10" stroke-linecap="round"/>
<path d="M1108.11 273.523H1126.77" stroke="#F49314" stroke-width="12.7884" stroke-miterlimit="10" stroke-linecap="round"/>
<path d="M1117.44 264.191V282.879" stroke="#F49314" stroke-width="12.7884" stroke-miterlimit="10" stroke-linecap="round"/>
<path d="M1486.88 539.644V568.397C1486.9 571.819 1489.67 574.575 1493.07 574.575C1496.47 574.575 1499.25 571.819 1499.25 568.397V539.644C1499.23 536.223 1496.45 533.467 1493.05 533.467C1489.65 533.467 1486.88 536.223 1486.88 539.644Z" fill="#F7E494"/>
<path d="M768.168 455.002L834.917 409.496" stroke="white" stroke-width="13.2487" stroke-miterlimit="10" stroke-linecap="round"/>
<path d="M834.917 455.002L768.168 409.496" stroke="white" stroke-width="13.2487" stroke-miterlimit="10" stroke-linecap="round"/>
<path d="M669.781 455.002L736.53 409.496" stroke="white" stroke-width="13.2487" stroke-miterlimit="10" stroke-linecap="round"/>
<path d="M736.53 455.002L669.781 409.496" stroke="white" stroke-width="13.2487" stroke-miterlimit="10" stroke-linecap="round"/>
<path d="M1224.21 655.782L1150.13 655.827C1146.7 655.827 1143.95 658.582 1143.95 662.004C1143.95 665.426 1146.7 668.181 1150.13 668.181L1224.21 668.137C1227.63 668.137 1230.39 665.381 1230.39 661.959C1230.39 658.538 1227.63 655.782 1224.21 655.782Z" fill="#F7E494"/>
<path d="M1057.33 270.106H1028.05C1024.36 270.106 1021.36 273.128 1021.36 276.817V306.103C1021.36 309.814 1024.38 312.791 1028.07 312.791H1057.36C1061.04 312.791 1064.04 309.792 1064.04 306.081V276.795C1064.04 273.106 1061.02 270.106 1057.33 270.106ZM1054.05 302.792H1031.36V280.128H1054.05V302.792Z" fill="#F7E494"/>
<path d="M1113.53 648.65C1121.04 648.65 1127.15 654.76 1127.15 662.271C1127.15 669.781 1121.04 675.892 1113.53 675.892C1106.02 675.892 1099.91 669.781 1099.91 662.271C1099.91 654.76 1106.02 648.65 1113.53 648.65ZM1113.53 666.804C1116.04 666.804 1118.06 664.76 1118.06 662.271C1118.06 659.782 1116.02 657.738 1113.53 657.738C1111.04 657.738 1108.99 659.782 1108.99 662.271C1108.99 664.76 1111.04 666.804 1113.53 666.804Z" fill="#FAC20C"/>
<path d="M1505.92 504.003C1505.92 511.491 1499.83 517.58 1492.34 517.58C1484.85 517.58 1478.77 511.491 1478.77 504.003C1478.77 496.515 1484.85 490.427 1492.34 490.427C1499.83 490.427 1505.92 496.515 1505.92 504.003ZM1487.83 504.003C1487.83 506.492 1489.85 508.536 1492.36 508.536C1494.88 508.536 1496.9 506.514 1496.9 504.003C1496.9 501.492 1494.88 499.47 1492.36 499.47C1489.85 499.47 1487.83 501.492 1487.83 504.003Z" fill="#F7E494"/>
<path d="M1314.96 707.296C1312.42 707.296 1309.91 706.341 1308.18 704.386C1306.25 702.652 1305.27 700.141 1305.27 697.608C1305.27 695.075 1306.22 692.587 1308.18 690.831C1311.67 687.165 1318.25 687.165 1321.71 690.831C1322.69 691.609 1323.47 692.787 1323.85 693.942C1324.42 695.12 1324.62 696.453 1324.62 697.631C1324.62 698.964 1324.42 700.141 1323.85 701.297C1323.47 702.475 1322.69 703.63 1321.71 704.408C1319.98 706.363 1317.47 707.319 1314.94 707.319L1314.96 707.296Z" fill="#F7E494"/>
<path d="M1491.3 450.862C1489.57 450.862 1487.86 450.195 1486.66 448.862C1485.32 447.662 1484.68 445.951 1484.68 444.218C1484.68 442.485 1485.35 440.774 1486.66 439.574C1489.03 437.063 1493.55 437.063 1495.92 439.574C1496.59 440.107 1497.12 440.907 1497.39 441.707C1497.79 442.507 1497.92 443.418 1497.92 444.24C1497.92 445.151 1497.79 445.951 1497.39 446.751C1497.12 447.551 1496.59 448.351 1495.92 448.884C1494.72 450.218 1493.01 450.884 1491.28 450.884L1491.3 450.862Z" fill="#EF6122"/>
<path d="M1387.96 263.856C1387.03 263.856 1385.94 263.701 1385.01 263.234C1384.08 262.923 1383.14 262.301 1382.52 261.523C1380.97 260.123 1380.19 258.101 1380.19 256.079C1380.19 254.991 1380.34 254.057 1380.81 253.124C1381.12 252.191 1381.74 251.258 1382.52 250.635C1385.32 247.68 1390.61 247.68 1393.41 250.635C1394.19 251.258 1394.81 252.191 1395.12 253.124C1395.59 254.057 1395.74 254.991 1395.74 256.079C1395.74 258.101 1394.96 260.123 1393.41 261.523C1392.79 262.301 1391.85 262.923 1390.92 263.234C1389.99 263.701 1388.9 263.856 1387.96 263.856Z" fill="#F7CE26"/>
</g>
<defs>
<clipPath id="clip0_1_2">
<rect width="1549" height="1030" fill="white"/>
</clipPath>
</defs>
</svg>
