<svg width="433" height="272" viewBox="0 0 433 272" fill="none" xmlns="http://www.w3.org/2000/svg">
    <path opacity="0.1" d="M202.053 261.123C249.366 261.123 287.722 256.62 287.722 251.065C287.722 245.51 249.366 241.008 202.053 241.008C154.739 241.008 116.383 245.511 116.383 251.065C116.383 256.619 154.739 261.123 202.053 261.123Z" fill="#080821"/>
    <path d="M249.9 185.18C257.16 187.207 315.479 204.052 305.571 218.649C296.277 232.334 251.143 216.091 236.947 206.202" fill="#F99F10"/>
    <path d="M249.9 185.18C257.16 187.207 315.479 204.052 305.571 218.649C296.277 232.334 251.143 216.091 236.947 206.202" stroke="#3A1103" stroke-width="3.238" stroke-miterlimit="10" stroke-linecap="round"/>
    <path d="M166.964 69.802C146.389 55.458 120.063 52.238 115.432 57.388C111.676 61.558 125.865 84.408 123.566 91.085C121.274 97.762 101.146 93.442 98.943 101.932C97.9 105.967 113.34 115.701 112.926 121.335C112.511 126.97 100.588 125.377 99.714 132.669C99.124 137.572 110.004 138.653 109.59 144.495C109.176 150.336 101.32 149.268 101.663 154.928C101.942 159.52 110.529 156.495 112.828 164.215C115.121 171.935 166.971 69.803 166.971 69.803L166.964 69.802Z" fill="#EF6122"/>
    <path d="M75.181 206.811C75.81 187.926 88.989 183.736 98.561 186.961C108.127 190.186 107.595 201.306 105.18 205.49C101.32 212.167 95.653 209.285 97.77 204.609C99.338 200.121 99.63 193.891 92.214 195.872C82.998 198.34 85.867 223.118 105.271 218.248C118.56 214.913 117.517 200.84 116.461 180.316C113.631 160.46 116.695 134.425 125.14 109.711C142.25 59.636 245.321 43.361 279.536 89.68C323.983 149.845 274.97 208.611 267.431 216.117C243.948 234.342 247.756 250.831 230.931 251.925C214.941 252.968 216.255 236.719 205.68 235.812C205.058 235.812 204.436 235.812 203.814 235.799C191.399 236.712 189.003 252.197 170.28 251.925C155.022 251.705 161.815 238.377 151.622 231.984C149.484 230.974 147.632 230.262 145.922 229.795C144.428 229.485 142.913 229.286 141.389 229.2C141 229.174 138.649 229.187 137.963 229.187C131.908 229.297 128.274 230.728 114.59 233.513C89.935 238.525 74.65 222.788 75.181 206.811Z" fill="#FAC20C" stroke="#3A1103" stroke-width="3.238" stroke-miterlimit="10"/>
    <path d="M142.483 82.589C177.533 57.759 218.328 71.32 223.541 74.766C228.754 78.212 236.144 74.118 231.993 63.776C218.081 29.14 182.19 11.524 172.527 17.489C161.724 24.159 175.312 53.912 168.253 60.887C162.586 66.482 158.726 62.208 149.089 58.977C140.385 56.055 142.483 82.589 142.483 82.589Z" fill="#EF6122"/>
    <path d="M191.694 149.93H287.725C299.264 149.93 308.618 140.576 308.618 129.037V129.03C308.618 117.492 299.264 108.138 287.725 108.138H191.694C180.155 108.138 170.801 117.492 170.801 129.03V129.037C170.801 140.576 180.155 149.93 191.694 149.93Z" fill="#5545EF" stroke="#231735" stroke-width="3.238" stroke-miterlimit="10"/>
    <path d="M217.104 143.398H289.976C297.63 143.398 303.835 137.193 303.835 129.539C303.835 121.885 297.63 115.68 289.976 115.68H217.104C209.45 115.68 203.245 121.885 203.245 129.539C203.245 137.193 209.45 143.398 217.104 143.398Z" fill="#19052D"/>
    <path d="M215.848 132.639L222.259 126.247C222.759 125.747 223.437 125.467 224.143 125.467C224.85 125.467 225.528 125.747 226.028 126.247L231.028 131.259C231.275 131.507 231.569 131.704 231.892 131.838C232.216 131.973 232.562 132.042 232.913 132.042C233.263 132.042 233.609 131.973 233.933 131.838C234.256 131.704 234.55 131.507 234.797 131.259L235.361 130.696C235.861 130.197 236.539 129.916 237.245 129.916C237.952 129.916 238.63 130.197 239.13 130.696L246.04 137.625C246.287 137.873 246.581 138.07 246.904 138.204C247.228 138.339 247.574 138.408 247.924 138.408C248.275 138.408 248.621 138.339 248.945 138.204C249.268 138.07 249.562 137.873 249.809 137.625L261.532 125.936C262.032 125.437 262.71 125.156 263.417 125.156C264.123 125.156 264.801 125.437 265.301 125.936L268.843 129.485C269.09 129.733 269.384 129.929 269.708 130.063C270.031 130.198 270.378 130.267 270.728 130.267C271.078 130.267 271.425 130.198 271.748 130.063C272.072 129.929 272.366 129.733 272.613 129.485C273.113 128.986 273.791 128.705 274.497 128.705C275.204 128.705 275.882 128.986 276.382 129.485L280.54 133.656C280.787 133.904 281.081 134.1 281.404 134.234C281.728 134.368 282.074 134.437 282.424 134.437C282.775 134.437 283.121 134.368 283.445 134.234C283.768 134.1 284.062 133.904 284.309 133.656L292.1 125.884" stroke="white" stroke-width="3.355" stroke-miterlimit="10" stroke-linecap="round"/>
    <path d="M192.293 187.851C191.891 200.053 187.533 211.393 178.485 210.622C168.492 209.774 166.012 199.405 166.355 188.143" fill="#F99F10"/>
    <path d="M192.293 187.851C191.891 200.053 187.533 211.393 178.485 210.622C168.492 209.774 166.012 199.405 166.355 188.143" stroke="#3A1103" stroke-width="3.238" stroke-miterlimit="10" stroke-linecap="round"/>
    <path d="M154.899 62.861C137.231 54.546 119.998 50.135 115.432 57.389C110.497 65.232 127.322 81.889 123.566 91.085C120.056 99.685 100.232 92.303 98.943 101.933C97.913 109.64 113.34 115.702 112.925 121.336C112.511 126.971 100.439 124.672 99.558 131.97C98.969 136.873 110.005 138.654 109.584 144.496C109.169 150.337 101.657 149.262 101.657 154.929C101.657 159.54 115.121 159.935 115.503 169.527" stroke="#3A1103" stroke-width="3.238" stroke-miterlimit="10"/>
    <path d="M223.541 74.769C228.755 78.214 236.144 74.121 231.993 63.779C218.082 29.143 183.252 11.463 172.527 17.492C161.271 23.82 175.312 53.915 168.253 60.89C164.309 64.789 159.128 64.62 154.38 62.626" stroke="#3A1103" stroke-width="3.238" stroke-miterlimit="10"/>
    <path d="M223.742 74.932C204.993 63.818 171.84 63.229 142.431 85.222" stroke="#3A1103" stroke-width="3.238" stroke-miterlimit="10"/>
    <path opacity="0.2" d="M322.842 169.888C344.847 169.888 362.685 152.05 362.685 130.045C362.685 108.041 344.847 90.203 322.842 90.203C300.838 90.203 283 108.041 283 130.045C283 152.05 300.838 169.888 322.842 169.888Z" fill="white"/>
    <path d="M369.362 138.759C369.932 135.767 370.197 132.71 370.165 129.666C370.1 123.685 368.878 117.774 366.564 112.258C365.416 109.519 364.011 106.895 362.368 104.421C360.707 101.928 358.809 99.6004 356.701 97.472C354.553 95.3067 352.195 93.3605 349.661 91.662C344.434 88.161 338.556 85.7496 332.376 84.572C329.379 84.0032 326.333 83.7339 323.283 83.768C320.286 83.8015 317.3 84.1247 314.365 84.733C311.457 85.3379 308.614 86.2207 305.875 87.369C300.357 89.6743 295.337 93.0233 291.089 97.232C288.924 99.3803 286.978 101.739 285.28 104.272C281.778 109.499 279.366 115.378 278.188 121.558C277.62 124.555 277.351 127.6 277.385 130.65C277.417 133.636 277.741 136.634 278.35 139.568C278.955 142.476 279.838 145.32 280.986 148.059C283.292 153.576 286.641 158.596 290.849 162.844C292.997 165.009 295.356 166.955 297.889 168.653C299.312 169.607 300.787 170.483 302.306 171.276L297.384 183.284L296.788 183.037C295.79 182.631 294.671 182.636 293.677 183.053C292.683 183.469 291.895 184.263 291.484 185.259L273.558 228.981C273.151 229.979 273.157 231.098 273.573 232.092C273.989 233.086 274.783 233.874 275.779 234.285L284.852 238.009C285.85 238.416 286.969 238.41 287.963 237.994C288.957 237.577 289.746 236.784 290.156 235.787L308.083 192.065C308.489 191.067 308.484 189.948 308.068 188.954C307.651 187.96 306.858 187.172 305.862 186.761L305.266 186.515L310.188 174.508C314.747 175.914 319.497 176.602 324.267 176.548C330.248 176.484 336.16 175.261 341.676 172.947C344.415 171.799 347.038 170.394 349.512 168.751C352.005 167.09 354.333 165.192 356.461 163.084C358.626 160.936 360.572 158.577 362.27 156.044C365.772 150.817 368.184 144.939 369.362 138.759ZM309.19 165.713C289.554 157.663 280.163 135.21 288.214 115.573C296.264 95.937 318.717 86.547 338.353 94.597C357.989 102.647 367.38 125.1 359.33 144.736C351.28 164.372 328.827 173.763 309.19 165.713Z" fill="#0A0016"/>
    <path opacity="0.6" d="M304.78 155.18C306.258 156.202 307.822 157.093 309.456 157.841C299.139 147.602 297.326 131.146 305.894 118.789C314.462 106.432 330.517 102.365 343.716 108.44C342.441 107.174 341.059 106.021 339.584 104.995C325.725 95.384 306.697 98.823 297.086 112.682C287.475 126.541 290.914 145.569 304.774 155.18H304.78Z" fill="white"/>
    <path d="M300.901 222.03C308.478 217.717 310.265 209.013 308.368 203.404C306.801 198.78 299.994 196.889 295.992 202.517C291.542 208.766 298.815 215.411 298.815 215.411" fill="#F99F10"/>
    <path d="M300.901 222.03C308.478 217.717 310.265 209.013 308.368 203.404C306.801 198.78 299.994 196.889 295.992 202.517C291.542 208.766 298.815 215.411 298.815 215.411" stroke="#3A1103" stroke-width="3.238" stroke-miterlimit="10" stroke-linecap="round"/>
    <path d="M248.339 167.215C239.81 171.023 230.866 168.607 225.419 160.078" stroke="black" stroke-width="3.238" stroke-miterlimit="10" stroke-linecap="round"/>
    <path d="M203.157 43.782C203.119 43.2818 203.034 42.7863 202.903 42.302C202.762 41.741 202.537 41.158 202.227 40.513C201.878 39.8261 201.455 39.1793 200.966 38.584C200.769 38.332 200.515 38.079 200.29 37.854C200.656 36.403 199.839 35.147 199.839 35.147C198.438 35.063 197.536 35.597 197.205 35.821C197.149 35.793 197.093 35.765 197.036 35.765C196.803 35.6513 196.557 35.5664 196.304 35.512C196.05 35.456 195.797 35.372 195.515 35.288C195.243 35.2289 194.971 35.1726 194.698 35.119C194.642 35.119 194.613 35.091 194.557 35.091C193.937 33.135 192.169 32.328 192.169 32.328C190.204 33.555 189.838 35.288 189.838 35.288C189.838 35.288 189.838 35.316 189.81 35.4L189.472 35.484C189.331 35.54 189.162 35.596 189.021 35.653C188.88 35.709 188.711 35.765 188.57 35.821C188.289 35.933 187.979 36.101 187.704 36.241C187.422 36.41 187.141 36.578 186.887 36.747C186.859 36.719 186.831 36.719 186.831 36.719C184.112 35.688 181.696 36.943 181.696 36.943C181.527 39.819 182.816 41.635 183.07 41.972C183.014 42.14 182.957 42.337 182.901 42.505C182.705 43.1649 182.554 43.8374 182.45 44.518C182.422 44.602 182.422 44.714 182.422 44.827C179.922 46.054 179.168 48.572 179.168 48.572C181.274 50.978 183.683 51.111 183.683 51.111C183.992 51.671 184.359 52.17 184.746 52.675C184.915 52.871 185.084 53.068 185.281 53.265C184.521 55.445 185.394 57.234 185.394 57.234C187.725 57.318 189.268 56.231 189.578 55.978C189.803 56.063 190.057 56.118 190.282 56.203C190.986 56.399 191.74 56.483 192.472 56.54H193.395C194.487 58.104 196.423 58.328 196.423 58.328C197.797 56.876 197.881 55.452 197.881 55.144V55.004C198.163 54.807 198.445 54.583 198.698 54.358C199.25 53.868 199.731 53.3039 200.128 52.682C200.156 52.626 200.213 52.57 200.241 52.514C201.783 52.598 202.875 51.567 202.875 51.567C202.621 49.947 201.699 49.161 201.501 49.027H201.445C201.445 49.027 201.417 49.027 201.417 49C201.417 48.916 201.445 48.803 201.445 48.72C201.445 48.55 201.473 48.382 201.473 48.186V47.513C201.473 47.457 201.473 47.429 201.445 47.373L201.417 47.233L201.389 47.092C201.361 46.924 201.332 46.727 201.276 46.559C201.107 45.857 200.825 45.219 200.487 44.602C200.124 44.0215 199.68 43.495 199.17 43.038C198.68 42.5961 198.121 42.238 197.515 41.978C196.924 41.733 196.311 41.53 195.691 41.474C195.381 41.446 195.071 41.418 194.768 41.418H194.289C194.12 41.418 193.98 41.446 193.81 41.474C193.205 41.582 192.625 41.8007 192.099 42.119C191.607 42.4229 191.163 42.7987 190.782 43.234C190.426 43.6499 190.14 44.1215 189.937 44.63C189.742 45.1106 189.628 45.6201 189.599 46.138V46.868C189.627 47.12 189.655 47.373 189.74 47.597C189.88 48.074 190.078 48.487 190.359 48.852C190.641 49.217 190.951 49.498 191.282 49.743C191.62 49.968 191.986 50.136 192.346 50.248C192.705 50.36 193.05 50.388 193.409 50.388H193.888C193.944 50.388 193.972 50.36 194.001 50.36C194.03 50.36 194.085 50.332 194.113 50.332C194.198 50.304 194.254 50.304 194.339 50.276L194.761 50.108C194.902 50.052 195.015 49.968 195.128 49.883C195.156 49.855 195.184 49.827 195.212 49.827C195.267 49.7856 195.303 49.7244 195.314 49.6564C195.324 49.5884 195.308 49.519 195.268 49.463C195.184 49.35 195.043 49.323 194.93 49.407C194.902 49.407 194.874 49.435 194.846 49.463C194.761 49.519 194.649 49.547 194.536 49.603L194.198 49.687C194.142 49.687 194.085 49.715 194.029 49.715H193.494C193.221 49.6795 192.956 49.604 192.705 49.491C192.439 49.3687 192.192 49.208 191.972 49.014C191.506 48.6 191.197 48.0375 191.099 47.422C191.071 47.253 191.071 47.085 191.071 46.945V46.692C191.071 46.608 191.099 46.524 191.099 46.44C191.224 45.7233 191.577 45.0663 192.106 44.567C192.247 44.427 192.388 44.3147 192.529 44.23C192.67 44.118 192.839 44.034 193.008 43.95C193.18 43.8675 193.359 43.8015 193.543 43.753C193.74 43.697 193.909 43.669 194.106 43.669H194.698C194.895 43.697 195.12 43.725 195.318 43.753C195.731 43.84 196.128 43.9919 196.494 44.203C197.233 44.6209 197.836 45.2413 198.234 45.991C198.431 46.384 198.572 46.776 198.628 47.191C198.656 47.302 198.656 47.415 198.656 47.499V48.172C198.656 48.284 198.628 48.396 198.628 48.509C198.6 48.621 198.6 48.733 198.572 48.845L198.487 49.182C198.431 49.406 198.346 49.631 198.262 49.855C198.093 50.276 197.867 50.697 197.586 51.083C197.022 51.8397 196.279 52.4445 195.423 52.843C194.994 53.0384 194.542 53.1798 194.078 53.264C193.845 53.2965 193.61 53.3152 193.374 53.32H193.008C192.867 53.32 192.754 53.32 192.641 53.292C192.138 53.265 191.639 53.1805 191.155 53.04C190.672 52.8946 190.203 52.7065 189.754 52.478C188.864 52.0101 188.08 51.3632 187.451 50.578C187.138 50.1869 186.865 49.7662 186.634 49.322C186.414 48.8837 186.234 48.4261 186.098 47.955C185.957 47.4826 185.872 46.9952 185.845 46.503V45.717C185.845 45.465 185.873 45.24 185.901 44.987C185.929 44.735 185.986 44.483 186.014 44.23C186.042 43.978 186.127 43.725 186.183 43.5C186.324 43.024 186.493 42.554 186.69 42.133C187.113 41.271 187.641 40.485 188.261 39.868C188.43 39.699 188.599 39.559 188.768 39.418C188.937 39.278 189.106 39.138 189.303 39.026C189.5 38.914 189.669 38.802 189.866 38.689C189.951 38.633 190.064 38.577 190.148 38.549C190.192 38.5233 190.239 38.5044 190.289 38.493C190.317 38.493 190.402 38.437 190.43 38.437C190.632 38.3488 190.839 38.2739 191.05 38.213C191.106 38.184 191.162 38.184 191.219 38.156C191.275 38.128 191.331 38.128 191.388 38.1L191.726 38.016C191.782 38.016 191.838 37.988 191.895 37.988C191.951 37.988 192.007 37.96 192.064 37.96C192.12 37.96 192.177 37.932 192.233 37.932H192.402C192.458 37.932 192.515 37.904 192.571 37.904C192.627 37.904 192.684 37.904 192.768 37.876C192.824 37.876 192.909 37.848 192.965 37.848H194.374C194.797 37.876 195.219 37.904 195.606 37.988C196.377 38.1242 197.124 38.37 197.825 38.718C198.501 39.054 199.114 39.447 199.649 39.888L199.734 39.973L199.818 40.057C199.875 40.113 199.931 40.169 200.015 40.226C200.1 40.282 200.128 40.338 200.184 40.394L200.353 40.562C200.579 40.815 200.776 41.039 200.973 41.292C201.339 41.769 201.649 42.266 201.896 42.715C201.924 42.743 201.924 42.771 201.952 42.799C201.98 42.827 201.98 42.856 202.009 42.884L202.093 43.052L202.178 43.22C202.209 43.2714 202.228 43.3292 202.234 43.389C202.318 43.613 202.403 43.809 202.459 44.006C202.561 44.2811 202.646 44.5623 202.713 44.848C202.741 44.932 202.826 45.016 202.938 44.988C202.964 44.989 202.99 44.9846 203.015 44.975C203.039 44.9655 203.061 44.951 203.079 44.9325C203.098 44.914 203.112 44.8919 203.122 44.8675C203.132 44.8432 203.136 44.8171 203.135 44.791C203.192 44.455 203.164 44.146 203.135 43.789L203.157 43.782Z" fill="#FAC20C" fill-opacity="0.7"/>
    <path d="M39.5144 221.884C36.1677 220.93 32.6814 222.87 31.7274 226.216C30.7734 229.563 32.713 233.049 36.0596 234.003C39.4062 234.957 42.8926 233.018 43.8466 229.671C44.8006 226.325 42.861 222.838 39.5144 221.884Z" stroke="#F3F2F9" stroke-width="4.583"/>
    <path d="M358.499 207.765C358.499 205.867 356.96 204.328 355.062 204.328C353.164 204.328 351.625 205.867 351.625 207.765V230.679C351.625 232.577 353.164 234.116 355.062 234.116C356.96 234.116 358.499 232.577 358.499 230.679V207.765Z" fill="#E8E6F4"/>
    <path d="M366.519 222.655C368.417 222.655 369.956 221.116 369.956 219.218C369.956 217.32 368.417 215.781 366.519 215.781H343.605C341.707 215.781 340.168 217.32 340.168 219.218C340.168 221.116 341.707 222.655 343.605 222.655H366.519Z" fill="#E8E6F4"/>
    <path d="M127.048 10.4028C126.273 9.62839 125.018 9.62839 124.243 10.4028C123.469 11.1772 123.469 12.4328 124.243 13.2072L133.59 22.5544C134.365 23.3288 135.62 23.3288 136.395 22.5544C137.169 21.78 137.169 20.5245 136.395 19.75L127.048 10.4028Z" fill="#E8E6F4"/>
    <path d="M136.395 13.2066C137.17 12.4322 137.17 11.1766 136.395 10.4022C135.621 9.62778 134.365 9.62778 133.591 10.4022L124.244 19.7494C123.469 20.5238 123.469 21.7794 124.244 22.5538C125.018 23.3282 126.274 23.3282 127.048 22.5538L136.395 13.2066Z" fill="#E8E6F4"/>
    <path d="M45.1147 147.5C44.1577 148.033 43.8135 149.24 44.3459 150.197C44.8784 151.154 46.0858 151.498 47.0429 150.966L58.5945 144.539C59.5515 144.007 59.8957 142.799 59.3633 141.842C58.8309 140.885 57.6234 140.541 56.6664 141.074L45.1147 147.5Z" fill="#E8E6F4"/>
    <path d="M50.3728 139.281C49.8404 138.324 48.6329 137.98 47.6759 138.512C46.7188 139.044 46.3746 140.252 46.9071 141.209L53.3337 152.761C53.8662 153.718 55.0736 154.062 56.0307 153.529C56.9877 152.997 57.3319 151.789 56.7995 150.832L50.3728 139.281Z" fill="#E8E6F4"/>
    <g clip-path="url(#clip0_3751_13597)">
        <path d="M373.649 161.782L373.56 161.667L373.46 161.748L373.649 161.782Z" fill="url(#paint0_linear_3751_13597)"/>
        <path d="M394.788 200.048L391.896 202.177L394.031 205.083L396.923 202.954L394.788 200.048Z" fill="url(#paint1_linear_3751_13597)"/>
        <path d="M404.308 190.527L417.103 181.11L414.974 178.218L402.173 187.621L404.308 190.527Z" fill="url(#paint2_linear_3751_13597)"/>
        <path d="M397.63 190.971L399.759 193.863L402.665 191.727L400.536 188.835L397.63 190.971Z" fill="url(#paint3_linear_3751_13597)"/>
        <path d="M401.466 199.605L399.337 196.713L396.431 198.849L398.56 201.74L401.466 199.605Z" fill="url(#paint4_linear_3751_13597)"/>
        <path d="M390.682 200.541L393.588 198.405L391.459 195.513L388.553 197.649L390.682 200.541Z" fill="url(#paint5_linear_3751_13597)"/>
        <path d="M418.303 182.753L405.508 192.17L407.637 195.062L420.438 185.659L418.303 182.753Z" fill="url(#paint6_linear_3751_13597)"/>
        <path d="M400.974 195.499L403.109 198.405L406.001 196.276L403.866 193.37L400.974 195.499Z" fill="url(#paint7_linear_3751_13597)"/>
        <path d="M395.231 197.205L398.123 195.077L395.988 192.17L393.096 194.299L395.231 197.205Z" fill="url(#paint8_linear_3751_13597)"/>
        <path d="M387.353 196.006L388.58 195.104L371.516 171.898L370.289 172.8L387.353 196.006Z" fill="url(#paint9_linear_3751_13597)"/>
        <path d="M389.033 194.772L390.26 193.87L371.948 168.957L370.721 169.858L389.033 194.772Z" fill="url(#paint10_linear_3751_13597)"/>
        <path d="M391.91 192.65L393.137 191.748L372.208 163.303L370.981 164.205L391.91 192.65Z" fill="url(#paint11_linear_3751_13597)"/>
        <path d="M393.589 191.416L394.816 190.514L375.61 164.388L374.383 165.29L393.589 191.416Z" fill="url(#paint12_linear_3751_13597)"/>
        <path d="M396.43 189.328L397.657 188.426L381.922 167.028L380.695 167.93L396.43 189.328Z" fill="url(#paint13_linear_3751_13597)"/>
        <path d="M398.11 188.094L399.337 187.192L383.012 164.977L381.785 165.878L398.11 188.094Z" fill="url(#paint14_linear_3751_13597)"/>
    </g>
    <g clip-path="url(#clip1_3751_13597)">
        <path d="M274.642 17.0826L274.611 16.9411L274.485 16.9726L274.642 17.0826Z" fill="url(#paint15_linear_3751_13597)"/>
        <path d="M277.629 60.6976L274.108 61.4048L274.815 64.9412L278.336 64.2339L277.629 60.6976Z" fill="url(#paint16_linear_3751_13597)"/>
        <path d="M290.281 56.0924L305.857 52.9647L305.149 49.4441L289.574 52.556L290.281 56.0924Z" fill="url(#paint17_linear_3751_13597)"/>
        <path d="M284.041 53.6719L284.748 57.1926L288.285 56.4853L287.577 52.9647L284.041 53.6719Z" fill="url(#paint18_linear_3751_13597)"/>
        <path d="M283.868 63.118L283.161 59.5973L279.625 60.3046L280.332 63.8252L283.868 63.118Z" fill="url(#paint19_linear_3751_13597)"/>
        <path d="M273.7 59.4088L277.236 58.7016L276.529 55.1809L272.992 55.8882L273.7 59.4088Z" fill="url(#paint20_linear_3751_13597)"/>
        <path d="M306.25 54.9608L290.674 58.0884L291.381 61.6091L306.957 58.4971L306.25 54.9608Z" fill="url(#paint21_linear_3751_13597)"/>
        <path d="M285.158 59.1889L285.865 62.7252L289.385 62.0179L288.678 58.4816L285.158 59.1889Z" fill="url(#paint22_linear_3751_13597)"/>
        <path d="M279.232 58.3085L282.753 57.6012L282.045 54.0649L278.525 54.7722L279.232 58.3085Z" fill="url(#paint23_linear_3751_13597)"/>
        <path d="M272.599 53.892L274.092 53.5934L268.434 25.3497L266.941 25.6484L272.599 53.892Z" fill="url(#paint24_linear_3751_13597)"/>
        <path d="M274.643 53.4835L276.136 53.1849L270.069 22.8666L268.576 23.1652L274.643 53.4835Z" fill="url(#paint25_linear_3751_13597)"/>
        <path d="M278.147 52.7761L279.64 52.4775L272.693 17.8527L271.2 18.1514L278.147 52.7761Z" fill="url(#paint26_linear_3751_13597)"/>
        <path d="M280.191 52.3677L281.684 52.069L275.318 20.2734L273.825 20.572L280.191 52.3677Z" fill="url(#paint27_linear_3751_13597)"/>
        <path d="M283.648 51.6758L285.141 51.3772L279.923 25.334L278.43 25.6326L283.648 51.6758Z" fill="url(#paint28_linear_3751_13597)"/>
        <path d="M285.692 51.2673L287.185 50.9687L281.778 23.9353L280.285 24.2339L285.692 51.2673Z" fill="url(#paint29_linear_3751_13597)"/>
    </g>
    <g clip-path="url(#clip2_3751_13597)">
        <path d="M72.1485 51.1749L72.2153 51.0464L72.0988 50.9896L72.1485 51.1749Z" fill="url(#paint30_linear_3751_13597)"/>
        <path d="M46.4009 86.5055L43.2493 84.7843L41.518 87.9479L44.6696 89.6691L46.4009 86.5055Z" fill="url(#paint31_linear_3751_13597)"/>
        <path d="M59.0534 91.1106L72.9955 98.7264L74.7167 95.5749L60.7847 87.9469L59.0534 91.1106Z" fill="url(#paint32_linear_3751_13597)"/>
        <path d="M55.8291 85.2454L54.1079 88.397L57.2715 90.1283L58.9927 86.9767L55.8291 85.2454Z" fill="url(#paint33_linear_3751_13597)"/>
        <path d="M49.6252 92.3706L51.3464 89.219L48.1828 87.4877L46.4615 90.6393L49.6252 92.3706Z" fill="url(#paint34_linear_3751_13597)"/>
        <path d="M44.2196 82.9928L47.3832 84.7242L49.1045 81.5726L45.9408 79.8412L44.2196 82.9928Z" fill="url(#paint35_linear_3751_13597)"/>
        <path d="M72.0134 100.508L58.0713 92.8922L56.3501 96.0437L70.2821 103.672L72.0134 100.508Z" fill="url(#paint36_linear_3751_13597)"/>
        <path d="M53.1382 90.1893L51.4069 93.353L54.5585 95.0742L56.2898 91.9105L53.1382 90.1893Z" fill="url(#paint37_linear_3751_13597)"/>
        <path d="M49.1649 85.706L52.3164 87.4273L54.0478 84.2636L50.8962 82.5424L49.1649 85.706Z" fill="url(#paint38_linear_3751_13597)"/>
        <path d="M46.9228 78.0594L48.2586 78.7904L62.0788 53.5175L60.7431 52.7865L46.9228 78.0594Z" fill="url(#paint39_linear_3751_13597)"/>
        <path d="M48.7507 79.0599L50.0864 79.7909L64.9272 52.6661L63.5915 51.9351L48.7507 79.0599Z" fill="url(#paint40_linear_3751_13597)"/>
        <path d="M51.8899 80.7707L53.2257 81.5017L70.1604 50.5122L68.8246 49.7812L51.8899 80.7707Z" fill="url(#paint41_linear_3751_13597)"/>
        <path d="M53.7179 81.7713L55.0537 82.5023L70.6154 54.0538L69.2796 53.3228L53.7179 81.7713Z" fill="url(#paint42_linear_3751_13597)"/>
        <path d="M56.8112 83.4637L58.1469 84.1947L70.8899 60.8903L69.5541 60.1593L56.8112 83.4637Z" fill="url(#paint43_linear_3751_13597)"/>
        <path d="M58.6394 84.4645L59.9752 85.1955L73.2101 61.0114L71.8744 60.2804L58.6394 84.4645Z" fill="url(#paint44_linear_3751_13597)"/>
    </g>
    <defs>
        <linearGradient id="paint0_linear_3751_13597" x1="407.924" y1="208.51" x2="375.351" y2="164.209" gradientUnits="userSpaceOnUse">
            <stop stop-color="#F9EC1C"/>
            <stop offset="1" stop-color="#F05A2B"/>
        </linearGradient>
        <linearGradient id="paint1_linear_3751_13597" x1="401.061" y1="211.612" x2="368.487" y2="167.312" gradientUnits="userSpaceOnUse">
            <stop stop-color="#F9EC1C"/>
            <stop offset="1" stop-color="#F05A2B"/>
        </linearGradient>
        <linearGradient id="paint2_linear_3751_13597" x1="419.628" y1="197.96" x2="387.054" y2="153.66" gradientUnits="userSpaceOnUse">
            <stop stop-color="#F9EC1C"/>
            <stop offset="1" stop-color="#F05A2B"/>
        </linearGradient>
        <linearGradient id="paint3_linear_3751_13597" x1="410.14" y1="204.937" x2="377.566" y2="160.636" gradientUnits="userSpaceOnUse">
            <stop stop-color="#F9EC1C"/>
            <stop offset="1" stop-color="#F05A2B"/>
        </linearGradient>
        <linearGradient id="paint4_linear_3751_13597" x1="405.601" y1="208.274" x2="373.027" y2="163.974" gradientUnits="userSpaceOnUse">
            <stop stop-color="#F9EC1C"/>
            <stop offset="1" stop-color="#F05A2B"/>
        </linearGradient>
        <linearGradient id="paint5_linear_3751_13597" x1="401.061" y1="211.612" x2="368.487" y2="167.312" gradientUnits="userSpaceOnUse">
            <stop stop-color="#F9EC1C"/>
            <stop offset="1" stop-color="#F05A2B"/>
        </linearGradient>
        <linearGradient id="paint6_linear_3751_13597" x1="419.628" y1="197.96" x2="387.054" y2="153.66" gradientUnits="userSpaceOnUse">
            <stop stop-color="#F9EC1C"/>
            <stop offset="1" stop-color="#F05A2B"/>
        </linearGradient>
        <linearGradient id="paint7_linear_3751_13597" x1="410.14" y1="204.936" x2="377.567" y2="160.636" gradientUnits="userSpaceOnUse">
            <stop stop-color="#F9EC1C"/>
            <stop offset="1" stop-color="#F05A2B"/>
        </linearGradient>
        <linearGradient id="paint8_linear_3751_13597" x1="405.601" y1="208.274" x2="373.027" y2="163.974" gradientUnits="userSpaceOnUse">
            <stop stop-color="#F9EC1C"/>
            <stop offset="1" stop-color="#F05A2B"/>
        </linearGradient>
        <linearGradient id="paint9_linear_3751_13597" x1="399.591" y1="211.367" x2="368.698" y2="169.352" gradientUnits="userSpaceOnUse">
            <stop stop-color="#F9EC1C"/>
            <stop offset="1" stop-color="#F05A2B"/>
        </linearGradient>
        <linearGradient id="paint10_linear_3751_13597" x1="402.131" y1="211.295" x2="368.963" y2="166.185" gradientUnits="userSpaceOnUse">
            <stop stop-color="#F9EC1C"/>
            <stop offset="1" stop-color="#F05A2B"/>
        </linearGradient>
        <linearGradient id="paint11_linear_3751_13597" x1="406.781" y1="211.596" x2="368.897" y2="160.074" gradientUnits="userSpaceOnUse">
            <stop stop-color="#F9EC1C"/>
            <stop offset="1" stop-color="#F05A2B"/>
        </linearGradient>
        <linearGradient id="paint12_linear_3751_13597" x1="407.295" y1="208.767" x2="372.518" y2="161.469" gradientUnits="userSpaceOnUse">
            <stop stop-color="#F9EC1C"/>
            <stop offset="1" stop-color="#F05A2B"/>
        </linearGradient>
        <linearGradient id="paint13_linear_3751_13597" x1="407.762" y1="203.456" x2="379.281" y2="164.721" gradientUnits="userSpaceOnUse">
            <stop stop-color="#F9EC1C"/>
            <stop offset="1" stop-color="#F05A2B"/>
        </linearGradient>
        <linearGradient id="paint14_linear_3751_13597" x1="409.857" y1="202.777" x2="380.285" y2="162.558" gradientUnits="userSpaceOnUse">
            <stop stop-color="#F9EC1C"/>
            <stop offset="1" stop-color="#F05A2B"/>
        </linearGradient>
        <linearGradient id="paint15_linear_3751_13597" x1="285.958" y1="73.9179" x2="275.159" y2="20.002" gradientUnits="userSpaceOnUse">
            <stop stop-color="#F9EC1C"/>
            <stop offset="1" stop-color="#F05A2B"/>
        </linearGradient>
        <linearGradient id="paint16_linear_3751_13597" x1="278.427" y1="73.8292" x2="267.627" y2="19.9133" gradientUnits="userSpaceOnUse">
            <stop stop-color="#F9EC1C"/>
            <stop offset="1" stop-color="#F05A2B"/>
        </linearGradient>
        <linearGradient id="paint17_linear_3751_13597" x1="301.024" y1="69.3028" x2="290.224" y2="15.387" gradientUnits="userSpaceOnUse">
            <stop stop-color="#F9EC1C"/>
            <stop offset="1" stop-color="#F05A2B"/>
        </linearGradient>
        <linearGradient id="paint18_linear_3751_13597" x1="289.476" y1="71.6158" x2="278.677" y2="17.6999" gradientUnits="userSpaceOnUse">
            <stop stop-color="#F9EC1C"/>
            <stop offset="1" stop-color="#F05A2B"/>
        </linearGradient>
        <linearGradient id="paint19_linear_3751_13597" x1="283.952" y1="72.7225" x2="273.152" y2="18.8066" gradientUnits="userSpaceOnUse">
            <stop stop-color="#F9EC1C"/>
            <stop offset="1" stop-color="#F05A2B"/>
        </linearGradient>
        <linearGradient id="paint20_linear_3751_13597" x1="278.427" y1="73.8294" x2="267.627" y2="19.913" gradientUnits="userSpaceOnUse">
            <stop stop-color="#F9EC1C"/>
            <stop offset="1" stop-color="#F05A2B"/>
        </linearGradient>
        <linearGradient id="paint21_linear_3751_13597" x1="301.024" y1="69.3028" x2="290.224" y2="15.3871" gradientUnits="userSpaceOnUse">
            <stop stop-color="#F9EC1C"/>
            <stop offset="1" stop-color="#F05A2B"/>
        </linearGradient>
        <linearGradient id="paint22_linear_3751_13597" x1="289.477" y1="71.616" x2="278.677" y2="17.7001" gradientUnits="userSpaceOnUse">
            <stop stop-color="#F9EC1C"/>
            <stop offset="1" stop-color="#F05A2B"/>
        </linearGradient>
        <linearGradient id="paint23_linear_3751_13597" x1="283.952" y1="72.7225" x2="273.152" y2="18.8066" gradientUnits="userSpaceOnUse">
            <stop stop-color="#F9EC1C"/>
            <stop offset="1" stop-color="#F05A2B"/>
        </linearGradient>
        <linearGradient id="paint24_linear_3751_13597" x1="277.198" y1="72.986" x2="266.956" y2="21.8514" gradientUnits="userSpaceOnUse">
            <stop stop-color="#F9EC1C"/>
            <stop offset="1" stop-color="#F05A2B"/>
        </linearGradient>
        <linearGradient id="paint25_linear_3751_13597" x1="279.531" y1="73.9938" x2="268.534" y2="19.0929" gradientUnits="userSpaceOnUse">
            <stop stop-color="#F9EC1C"/>
            <stop offset="1" stop-color="#F05A2B"/>
        </linearGradient>
        <linearGradient id="paint26_linear_3751_13597" x1="283.618" y1="76.2315" x2="271.058" y2="13.5262" gradientUnits="userSpaceOnUse">
            <stop stop-color="#F9EC1C"/>
            <stop offset="1" stop-color="#F05A2B"/>
        </linearGradient>
        <linearGradient id="paint27_linear_3751_13597" x1="285.28" y1="73.8854" x2="273.749" y2="16.3215" gradientUnits="userSpaceOnUse">
            <stop stop-color="#F9EC1C"/>
            <stop offset="1" stop-color="#F05A2B"/>
        </linearGradient>
        <linearGradient id="paint28_linear_3751_13597" x1="287.947" y1="69.2694" x2="278.504" y2="22.1268" gradientUnits="userSpaceOnUse">
            <stop stop-color="#F9EC1C"/>
            <stop offset="1" stop-color="#F05A2B"/>
        </linearGradient>
        <linearGradient id="paint29_linear_3751_13597" x1="290.133" y1="69.5392" x2="280.328" y2="20.5903" gradientUnits="userSpaceOnUse">
            <stop stop-color="#F9EC1C"/>
            <stop offset="1" stop-color="#F05A2B"/>
        </linearGradient>
        <linearGradient id="paint30_linear_3751_13597" x1="44.2841" y1="101.987" x2="70.6676" y2="53.7434" gradientUnits="userSpaceOnUse">
            <stop stop-color="#F9EC1C"/>
            <stop offset="1" stop-color="#F05A2B"/>
        </linearGradient>
        <linearGradient id="paint31_linear_3751_13597" x1="38.5716" y1="97.0781" x2="64.9551" y2="48.8342" gradientUnits="userSpaceOnUse">
            <stop stop-color="#F9EC1C"/>
            <stop offset="1" stop-color="#F05A2B"/>
        </linearGradient>
        <linearGradient id="paint32_linear_3751_13597" x1="58.7915" y1="108.136" x2="85.1749" y2="59.8921" gradientUnits="userSpaceOnUse">
            <stop stop-color="#F9EC1C"/>
            <stop offset="1" stop-color="#F05A2B"/>
        </linearGradient>
        <linearGradient id="paint33_linear_3751_13597" x1="48.4588" y1="102.485" x2="74.8422" y2="54.2411" gradientUnits="userSpaceOnUse">
            <stop stop-color="#F9EC1C"/>
            <stop offset="1" stop-color="#F05A2B"/>
        </linearGradient>
        <linearGradient id="paint34_linear_3751_13597" x1="43.5154" y1="99.7817" x2="69.8989" y2="51.5378" gradientUnits="userSpaceOnUse">
            <stop stop-color="#F9EC1C"/>
            <stop offset="1" stop-color="#F05A2B"/>
        </linearGradient>
        <linearGradient id="paint35_linear_3751_13597" x1="38.5718" y1="97.0785" x2="64.9554" y2="48.8342" gradientUnits="userSpaceOnUse">
            <stop stop-color="#F9EC1C"/>
            <stop offset="1" stop-color="#F05A2B"/>
        </linearGradient>
        <linearGradient id="paint36_linear_3751_13597" x1="58.7915" y1="108.136" x2="85.1749" y2="59.892" gradientUnits="userSpaceOnUse">
            <stop stop-color="#F9EC1C"/>
            <stop offset="1" stop-color="#F05A2B"/>
        </linearGradient>
        <linearGradient id="paint37_linear_3751_13597" x1="48.4591" y1="102.486" x2="74.8425" y2="54.2416" gradientUnits="userSpaceOnUse">
            <stop stop-color="#F9EC1C"/>
            <stop offset="1" stop-color="#F05A2B"/>
        </linearGradient>
        <linearGradient id="paint38_linear_3751_13597" x1="43.5155" y1="99.7817" x2="69.8989" y2="51.5378" gradientUnits="userSpaceOnUse">
            <stop stop-color="#F9EC1C"/>
            <stop offset="1" stop-color="#F05A2B"/>
        </linearGradient>
        <linearGradient id="paint39_linear_3751_13597" x1="38.1723" y1="95.6424" x2="63.1948" y2="49.8872" gradientUnits="userSpaceOnUse">
            <stop stop-color="#F9EC1C"/>
            <stop offset="1" stop-color="#F05A2B"/>
        </linearGradient>
        <linearGradient id="paint40_linear_3751_13597" x1="39.3119" y1="97.9142" x2="66.1773" y2="48.7889" gradientUnits="userSpaceOnUse">
            <stop stop-color="#F9EC1C"/>
            <stop offset="1" stop-color="#F05A2B"/>
        </linearGradient>
        <linearGradient id="paint41_linear_3751_13597" x1="41.0041" y1="102.255" x2="71.6885" y2="46.1466" gradientUnits="userSpaceOnUse">
            <stop stop-color="#F9EC1C"/>
            <stop offset="1" stop-color="#F05A2B"/>
        </linearGradient>
        <linearGradient id="paint42_linear_3751_13597" x1="43.785" y1="101.526" x2="71.9536" y2="50.0178" gradientUnits="userSpaceOnUse">
            <stop stop-color="#F9EC1C"/>
            <stop offset="1" stop-color="#F05A2B"/>
        </linearGradient>
        <linearGradient id="paint43_linear_3751_13597" x1="48.7957" y1="99.7047" x2="71.8646" y2="57.5216" gradientUnits="userSpaceOnUse">
            <stop stop-color="#F9EC1C"/>
            <stop offset="1" stop-color="#F05A2B"/>
        </linearGradient>
        <linearGradient id="paint44_linear_3751_13597" x1="50.2968" y1="101.316" x2="74.2496" y2="57.517" gradientUnits="userSpaceOnUse">
            <stop stop-color="#F9EC1C"/>
            <stop offset="1" stop-color="#F05A2B"/>
        </linearGradient>
        <clipPath id="clip0_3751_13597">
            <rect width="48" height="48" fill="white" transform="translate(363.89 166.176) rotate(-25)"/>
        </clipPath>
        <clipPath id="clip1_3751_13597">
            <rect width="48" height="48" fill="white" transform="translate(263.941 16.9411)"/>
        </clipPath>
        <clipPath id="clip2_3751_13597">
            <rect width="48" height="48" fill="white" transform="translate(64.0418 44.188) rotate(40)"/>
        </clipPath>
    </defs>
</svg>
